<?xml version="1.0" encoding="UTF-8"?>
<svg version="1.1" xmlns="http://www.w3.org/2000/svg" width="512" height="512">
<path d="M0 0 C1.81715862 2.35174341 1.91680355 4.70362453 2.23901367 7.60351562 C3.16713867 7.70664063 4.09526367 7.80976563 5.05151367 7.91601562 C10.23401199 8.64113885 15.21919983 10.16020568 20.23901367 11.60351562 C20.75463867 10.94351563 21.27026367 10.28351563 21.80151367 9.60351562 C24.23901367 7.60351562 24.23901367 7.60351562 27.39916992 7.13476562 C32.22968083 7.7244516 36.21245503 9.22427561 40.67651367 11.10351562 C41.5532373 11.46445313 42.42996094 11.82539063 43.33325195 12.19726562 C51.5074961 15.61469595 59.42535188 19.43346589 67.23901367 23.60351562 C68.4069043 24.21710938 69.57479492 24.83070313 70.77807617 25.46289062 C96.35193678 39.43326143 119.39753212 59.97260827 128.73901367 88.29101562 C139.140685 132.4403317 120.90081514 187.97601096 98.24194336 225.47412109 C93.90508359 232.41208265 89.21406108 239.1085963 84.23901367 245.60351562 C83.61639648 246.41949219 82.9937793 247.23546875 82.35229492 248.07617188 C64.422225 271.02520661 41.51405484 293.49474235 15.23901367 306.60351562 C14.57901367 306.60351562 13.91901367 306.60351562 13.23901367 306.60351562 C13.28541992 307.46332031 13.33182617 308.323125 13.37963867 309.20898438 C13.82623954 323.83516296 9.99093478 335.66638344 0.34838867 346.78320312 C-13.06401978 359.93964959 -33.6355711 365.00385812 -51.44848633 368.85351562 C-52.1469165 369.0046582 -52.84534668 369.15580078 -53.56494141 369.31152344 C-68.72158533 372.36803568 -83.6589892 373.00969006 -99.07348633 372.97851562 C-100.59242996 372.97769989 -100.59242996 372.97769989 -102.14205933 372.97686768 C-133.4754729 372.89963471 -174.4506561 369.73722827 -199.00317383 347.58007812 C-209.6447981 336.45656898 -213.05077592 324.30920785 -212.83129883 309.38476562 C-212.8080957 308.46695312 -212.78489258 307.54914063 -212.76098633 306.60351562 C-213.96174805 306.29607422 -213.96174805 306.29607422 -215.18676758 305.98242188 C-219.94033488 304.14853197 -223.78808975 301.44987056 -227.94848633 298.54101562 C-228.79419189 297.95465332 -229.63989746 297.36829102 -230.51123047 296.76416016 C-241.3320878 289.19339831 -251.18426767 280.68202349 -260.76098633 271.60351562 C-261.5136377 270.89388672 -261.5136377 270.89388672 -262.28149414 270.16992188 C-270.27996534 262.57780388 -277.18377625 254.44553125 -283.76098633 245.60351562 C-284.39883057 244.75684326 -284.39883057 244.75684326 -285.04956055 243.89306641 C-307.50631485 213.97662902 -321.63406819 179.46691333 -327.76098633 142.60351562 C-327.9557959 141.44843506 -327.9557959 141.44843506 -328.15454102 140.27001953 C-332.43952949 113.49784365 -332.01204777 86.84898022 -316.01098633 64.04101562 C-279.79359324 16.27803992 -214.37871902 -1.60622491 -157.76098633 -9.39648438 C-119.98535834 -14.5063744 -32.25381197 -25.57767981 0 0 Z " fill="#EEF2F4" transform="translate(355.760986328125,139.396484375)"/>
<path d="M0 0 C0.89025879 0.31549805 1.78051758 0.63099609 2.69775391 0.95605469 C28.97946834 10.47091285 59.40563892 24.86747628 74 50 C74.50402344 50.8146875 75.00804687 51.629375 75.52734375 52.46875 C80.3932658 61.41881161 80.53212592 71.52676799 78.21875 81.30078125 C69.0016475 106.15403978 42.85387053 121.48947802 20 132 C13.81153004 134.61948171 7.51836225 136.94529009 1.19238281 139.20849609 C-0.58174584 139.849 -2.34377478 140.52295517 -4.1015625 141.20703125 C-39.048991 154.78567607 -79.59159602 158.44580882 -116.75 158.25 C-117.80337555 158.24689819 -118.8567511 158.24379639 -119.94204712 158.24060059 C-135.3825631 158.18735491 -150.6586813 157.88726592 -166 156 C-167.71509766 155.79866455 -167.71509766 155.79866455 -169.46484375 155.59326172 C-215.55183733 150.08842637 -275.85394836 137.42168118 -307.27832031 99.45556641 C-316.38510583 87.7281993 -320.33742416 77.99235974 -319 63 C-316.31303301 48.16616572 -304.51462627 36.67728175 -293.45703125 27.3984375 C-290.40444309 25.66103438 -288.46190816 25.62484123 -285 26 C-282.625 27.5625 -282.625 27.5625 -281 30 C-280.4375 33.4375 -280.4375 33.4375 -281 37 C-283.05125784 39.56407229 -285.32463941 41.45321224 -287.8671875 43.51171875 C-294.87272106 49.35874968 -302.19746 57.12108575 -303.30078125 66.578125 C-303.32868318 72.93976562 -302.44025021 78.11725396 -300 84 C-299.34 84 -298.68 84 -298 84 C-297.77183594 83.29230469 -297.54367187 82.58460938 -297.30859375 81.85546875 C-294.62406996 75.99759744 -289.4623554 71.57601778 -285 67 C-283.79537109 65.73929688 -283.79537109 65.73929688 -282.56640625 64.453125 C-258.18943841 40.58319809 -221.96106281 29.18749432 -189.35644531 22.49658203 C-187.87733151 22.18488316 -186.40177865 21.85517787 -184.93261719 21.49951172 C-148.60976565 12.73163132 -107.71177868 13.57344429 -71 19 C-69.96439941 19.14453613 -68.92879883 19.28907227 -67.86181641 19.43798828 C-24.4110207 25.57149907 26.13886894 41.00483025 54.51123047 76.91259766 C58 81.64796859 58 81.64796859 58 84 C58.66 84 59.32 84 60 84 C63.07181906 76.59472191 64.68961634 69.21747267 62.15625 61.39453125 C51.84600392 38.92794772 24.69713716 26.38254438 2.79541016 18.02832031 C-15.14272687 11.42959253 -33.18008505 6.31877343 -52 3 C-52.84353027 2.84837402 -53.68706055 2.69674805 -54.55615234 2.54052734 C-75.84121175 -1.23059772 -96.89728057 -2.41200351 -118.5 -2.375 C-119.75223358 -2.37412384 -121.00446716 -2.37324768 -122.29464722 -2.37234497 C-166.51248891 -2.27062841 -212.74567811 2.93883336 -253.18457031 22.24536133 C-255.96648315 23.40174818 -258.05371629 23.54814581 -261 23 C-263.375 21.4375 -263.375 21.4375 -265 19 C-265.5625 15.5 -265.5625 15.5 -265 12 C-251.07521272 -1.16937387 -224.57353238 -5.48998995 -206.47314453 -9.45019531 C-204.19177508 -9.95736649 -201.92242181 -10.4995365 -199.65234375 -11.0546875 C-136.03590626 -26.19593598 -61.59731557 -21.85539578 0 0 Z " fill="#030303" transform="translate(376,176)"/>
<path d="M0 0 C1.77163041 2.19940843 2.11666165 3.73724807 2.25073242 6.55273438 C0.05670257 11.1497493 0.05670257 11.1497493 -2.74926758 12.55273438 C-10.36318254 12.96661898 -17.35515147 11.688401 -24.81176758 10.24023438 C-33.95502689 8.5416771 -43.08454532 6.97051541 -52.31176758 5.80273438 C-53.18776611 5.68760498 -54.06376465 5.57247559 -54.96630859 5.45385742 C-107.81564068 -0.95902585 -163.91483202 3.85941164 -214.74926758 19.55273438 C-215.62502441 19.82166504 -216.50078125 20.0905957 -217.40307617 20.36767578 C-242.77053938 28.32390105 -267.68292119 39.89299372 -287.74926758 57.55273438 C-288.80114258 58.38998047 -288.80114258 58.38998047 -289.87426758 59.24414062 C-302.91048947 69.81060954 -312.30466968 86.10192286 -314.10083008 102.82617188 C-314.77705411 118.66405048 -308.15253645 134.00520076 -297.56176758 145.61523438 C-295.65456768 147.62553484 -293.70793282 149.59272251 -291.74926758 151.55273438 C-290.92813477 152.39707031 -290.10700195 153.24140625 -289.26098633 154.11132812 C-276.24732446 166.76068842 -259.96075918 174.74832578 -243.6496582 182.27661133 C-242.5378418 182.7918335 -241.42602539 183.30705566 -240.28051758 183.83789062 C-239.28600586 184.29043213 -238.29149414 184.74297363 -237.2668457 185.20922852 C-234.90132244 186.47159028 -233.37046687 187.43278183 -231.74926758 189.55273438 C-231.24896522 193.48368144 -231.14965338 195.65331307 -233.37426758 198.99023438 C-236.53273964 201.06817652 -237.97600101 200.92274683 -241.74926758 200.55273438 C-244.92197396 199.5141405 -247.91349019 198.15002091 -250.93676758 196.74023438 C-251.81171875 196.33716064 -252.68666992 195.93408691 -253.58813477 195.51879883 C-273.91495579 185.96300334 -292.40872602 174.06331723 -307.74926758 157.55273438 C-295.89390157 202.69148818 -271.43666198 243.31828705 -234.74926758 272.55273438 C-233.98227539 273.19855469 -233.2152832 273.844375 -232.42504883 274.50976562 C-209.07069987 293.97833156 -180.67592265 307.0277814 -151.37426758 314.49023438 C-149.71923218 314.91405396 -149.71923218 314.91405396 -148.03076172 315.34643555 C-131.83183342 319.24868163 -115.77793994 319.96136874 -99.18676758 319.92773438 C-98.22015198 319.92752289 -97.25353638 319.9273114 -96.25762939 319.92709351 C-81.38609984 319.89466721 -67.24671851 319.13224295 -52.74926758 315.55273438 C-51.96664551 315.37081543 -51.18402344 315.18889648 -50.37768555 315.00146484 C-4.47984281 304.19117522 38.09717852 277.64364285 67.25073242 240.55273438 C68.06541992 239.54339844 68.88010742 238.5340625 69.71948242 237.49414062 C75.5609802 230.18040463 80.57371487 222.56515954 85.18920898 214.42480469 C85.87697378 213.21188369 86.57124872 212.00262187 87.27319336 210.79785156 C96.73039628 194.53146254 103.04418523 176.5794229 108.25073242 158.55273438 C107.10444907 159.5522185 105.95874389 160.55236569 104.81323242 161.55273438 C103.70334961 162.51759766 103.70334961 162.51759766 102.57104492 163.50195312 C101.1083242 164.79476185 99.66277446 166.10751961 98.24291992 167.44726562 C81.60576907 182.97738173 60.25907537 193.36248358 39.25073242 201.55273438 C37.99897217 202.05135986 37.99897217 202.05135986 36.72192383 202.56005859 C-7.04421385 219.88570984 -54.11328802 224.77425992 -100.81176758 224.80273438 C-102.75238571 224.8047435 -102.75238571 224.8047435 -104.73220825 224.80679321 C-123.61681623 224.80254833 -142.04975224 224.29641872 -160.74926758 221.55273438 C-162.443065 221.33234122 -164.13706488 221.11349635 -165.83129883 220.89648438 C-175.19692363 219.62472808 -184.4057693 217.62023939 -193.62426758 215.55273438 C-194.74929687 215.30354248 -195.87432617 215.05435059 -197.03344727 214.79760742 C-198.09208984 214.55179932 -199.15073242 214.30599121 -200.24145508 214.05273438 C-201.18359863 213.83617187 -202.12574219 213.61960937 -203.09643555 213.39648438 C-207.53191817 211.98575108 -210.15442168 210.44500322 -212.74926758 206.55273438 C-212.61904116 202.90639475 -212.46456556 200.46831579 -210.18676758 197.55273438 C-204.54777318 195.23930078 -197.19071247 198.1166399 -191.48779297 199.52099609 C-161.78707916 206.69036553 -132.33119681 209.01524431 -101.81176758 208.99023438 C-100.55188019 208.99045593 -99.2919928 208.99067749 -97.993927 208.99090576 C-75.03440532 208.94784484 -52.37551274 207.8118461 -29.76220703 203.68579102 C-27.28709694 203.23574858 -24.80879515 202.80822846 -22.3293457 202.3828125 C-11.25505945 200.43812546 -0.52680197 197.73829205 10.25073242 194.55273438 C11.63224222 194.15316189 13.01391159 193.75414066 14.39575195 193.35571289 C43.37703429 184.89057198 71.29518679 171.52107022 93.25073242 150.55273438 C93.88495117 149.98167969 94.51916992 149.410625 95.17260742 148.82226562 C106.65178315 138.13037849 114.04562323 122.00946942 114.62573242 106.36523438 C114.29206857 87.14619625 103.28397623 72.14294665 90.22363281 59.08886719 C83.86928345 52.99696523 76.7081904 48.1862602 69.25073242 43.55273438 C68.57864746 43.13282227 67.9065625 42.71291016 67.21411133 42.28027344 C56.42841502 35.65842969 45.09966587 30.82110947 33.28857422 26.30664062 C32.17522705 25.87480469 31.06187988 25.44296875 29.91479492 24.99804688 C28.91915527 24.62180176 27.92351562 24.24555664 26.89770508 23.85791016 C24.01065809 22.43435794 22.27589887 21.04719703 20.25073242 18.55273438 C19.6878524 14.61257425 19.64677214 12.49491242 21.81323242 9.11523438 C25.21498157 6.93462595 27.22217612 7.2290111 31.25073242 7.55273438 C34.49873795 8.48493482 37.57611777 9.74262382 40.68823242 11.05273438 C41.56495605 11.41367188 42.44167969 11.77460938 43.3449707 12.14648438 C51.51921485 15.5639147 59.43707063 19.38268464 67.25073242 23.55273438 C68.41862305 24.16632813 69.58651367 24.77992188 70.78979492 25.41210938 C96.36365553 39.38248018 119.40925087 59.92182702 128.75073242 88.24023438 C139.15240375 132.38955045 120.91253389 187.92522971 98.25366211 225.42333984 C93.91680234 232.3613014 89.22577983 239.05781505 84.25073242 245.55273438 C83.62811523 246.36871094 83.00549805 247.1846875 82.36401367 248.02539062 C64.43394375 270.97442536 41.52577359 293.4439611 15.25073242 306.55273438 C14.59073242 306.55273438 13.93073242 306.55273438 13.25073242 306.55273438 C13.29713867 307.41253906 13.34354492 308.27234375 13.39135742 309.15820312 C13.83795829 323.78438171 10.00265353 335.61560219 0.36010742 346.73242188 C-13.05230103 359.88886834 -33.62385235 364.95307687 -51.43676758 368.80273438 C-52.13519775 368.95387695 -52.83362793 369.10501953 -53.55322266 369.26074219 C-68.70986658 372.31725443 -83.64727045 372.95890881 -99.06176758 372.92773438 C-100.58071121 372.92691864 -100.58071121 372.92691864 -102.13034058 372.92608643 C-133.46375415 372.84885346 -174.43893735 369.68644702 -198.99145508 347.52929688 C-209.63307935 336.40578773 -213.03905717 324.2584266 -212.81958008 309.33398438 C-212.79637695 308.41617187 -212.77317383 307.49835938 -212.74926758 306.55273438 C-213.9500293 306.24529297 -213.9500293 306.24529297 -215.17504883 305.93164062 C-219.92861613 304.09775072 -223.776371 301.39908931 -227.93676758 298.49023438 C-228.78247314 297.90387207 -229.62817871 297.31750977 -230.49951172 296.71337891 C-241.32036905 289.14261706 -251.17254892 280.63124224 -260.74926758 271.55273438 C-261.50191895 270.84310547 -261.50191895 270.84310547 -262.26977539 270.11914062 C-270.26824659 262.52702263 -277.1720575 254.39475 -283.74926758 245.55273438 C-284.38711182 244.70606201 -284.38711182 244.70606201 -285.0378418 243.84228516 C-307.4945961 213.92584777 -321.62234944 179.41613208 -327.74926758 142.55273438 C-327.94407715 141.39765381 -327.94407715 141.39765381 -328.14282227 140.21923828 C-332.42781074 113.4470624 -332.00032902 86.79819897 -315.99926758 63.99023438 C-279.78187449 16.22725867 -214.36700027 -1.65700616 -157.74926758 -9.44726562 C-120.70039065 -14.4588484 -31.2452932 -25.85095577 0 0 Z " fill="#010202" transform="translate(355.749267578125,139.447265625)"/>
<path d="M0 0 C0.81203888 -0.00117828 1.62407776 -0.00235657 2.46072388 -0.00357056 C18.20723946 -0.00097906 33.99644726 0.38349449 49.625 2.4375 C50.60090088 2.5610083 51.57680176 2.6845166 52.58227539 2.81176758 C61.99985663 4.05791816 71.33585975 5.75067771 80.65991211 7.56152344 C86.93394996 8.7496469 92.80007644 9.73536176 99.1875 9.1875 C100.8392169 7.83070759 100.8392169 7.83070759 102.1875 6.1875 C102.8475 5.5275 103.5075 4.8675 104.1875 4.1875 C106.97327397 4.81392269 109.73329781 5.4852005 112.5 6.1875 C113.28568359 6.35894531 114.07136719 6.53039062 114.88085938 6.70703125 C117.22528628 7.3255609 119.11622496 7.92002814 121.1875 9.1875 C122.3439077 11.20212553 122.95497562 13.09881547 123.59545898 15.3269043 C124.0894259 17.32664362 124.0894259 17.32664362 125.796875 18.95703125 C129.56351947 20.89574532 133.47997051 22.37350937 137.4375 23.875 C156.36502609 31.27041009 175.03479791 40.43384 190.1875 54.1875 C190.71085937 54.66171387 191.23421875 55.13592773 191.7734375 55.62451172 C204.80862125 67.59255454 215.66324234 81.74894743 217.4609375 99.95703125 C218.00199173 116.16784836 211.66514923 131.57120764 200.75 143.4375 C198.91275869 145.37147034 197.0517357 147.27927054 195.1875 149.1875 C194.60226562 149.83460938 194.01703125 150.48171875 193.4140625 151.1484375 C164.24508089 182.68647345 112.39431804 195.69707343 71.875 202.5625 C71.17196747 202.68401428 70.46893494 202.80552856 69.74459839 202.9307251 C46.70143688 206.85751995 23.45916219 207.62910343 0.125 207.625 C-1.17766815 207.6260675 -2.4803363 207.62713501 -3.82247925 207.62823486 C-34.07053482 207.59267418 -63.15393001 204.65610322 -92.53125 197.421875 C-96.97426345 196.34909611 -101.24339256 195.45996971 -105.8125 195.1875 C-106.4725 195.8475 -107.1325 196.5075 -107.8125 197.1875 C-108.4725 197.8475 -109.1325 198.5075 -109.8125 199.1875 C-115.62910739 199.08545426 -120.94791659 197.39429552 -126.4921875 195.7109375 C-128.8214585 194.92819683 -128.8214585 194.92819683 -130.8125 196.1875 C-130.7196875 195.59582031 -130.626875 195.00414062 -130.53125 194.39453125 C-130.4590625 193.60433594 -130.386875 192.81414062 -130.3125 192 C-130.2196875 191.22269531 -130.126875 190.44539062 -130.03125 189.64453125 C-131.15431914 186.11247881 -133.23041049 185.23482806 -136.37402344 183.44458008 C-139.7993606 181.67875498 -143.272171 180.04222143 -146.7800293 178.44726562 C-163.81004666 170.70231861 -178.50209309 161.35094659 -191.8125 148.1875 C-192.48539063 147.57519531 -193.15828125 146.96289062 -193.8515625 146.33203125 C-202.15664284 138.63062416 -206.92398773 128.66825573 -210.8125 118.1875 C-211.245625 117.07375 -211.67875 115.96 -212.125 114.8125 C-215.12580553 98.99007087 -210.89290407 84.92937118 -202.28515625 71.72265625 C-176.16443288 33.52251067 -122.19250005 16.07176904 -79.109375 7.79345703 C-52.76845925 2.95206538 -26.80768494 0.0296119 0 0 Z M-62.8125 20.1875 C-64.07433105 20.40712402 -65.33616211 20.62674805 -66.63623047 20.85302734 C-107.39180112 27.08446068 -107.39180112 27.08446068 -142.8125 46.1875 C-143.17645977 50.04547355 -143.37257535 52.34738698 -141.1875 55.625 C-138.03935005 57.69615128 -136.57110789 57.54054221 -132.8125 57.1875 C-129.74788341 56.19691306 -126.82701055 54.90789945 -123.875 53.625 C-83.21740177 36.76934996 -40.44124475 31.85779845 3.1875 31.75 C4.37000336 31.74373596 5.55250671 31.73747192 6.77084351 31.73101807 C33.06907238 31.6428862 58.53230678 34.44927733 84.1875 40.1875 C85.5403305 40.47411924 86.89319087 40.76059757 88.24609375 41.046875 C117.21102894 47.6567418 145.98927978 58.31138165 169.1875 77.1875 C169.80367188 77.65671875 170.41984375 78.1259375 171.0546875 78.609375 C177.79878164 83.94470281 184.46357302 91.98241161 185.48828125 100.765625 C185.51618318 107.12726562 184.62775021 112.30475396 182.1875 118.1875 C181.5275 118.1875 180.8675 118.1875 180.1875 118.1875 C179.85298828 117.13175781 179.85298828 117.13175781 179.51171875 116.0546875 C177.89765179 112.55992304 175.62610079 110.06297633 173 107.3125 C172.54302734 106.82136719 172.08605469 106.33023438 171.61523438 105.82421875 C170.15415486 104.26384257 168.6722652 102.72533446 167.1875 101.1875 C166.65036377 100.61539795 166.11322754 100.0432959 165.55981445 99.45385742 C161.33539917 95.0567706 156.84733095 91.58145795 151.75 88.25 C150.96286621 87.73276367 150.17573242 87.21552734 149.36474609 86.68261719 C131.55613983 75.18696333 111.42640426 67.29234981 91.1875 61.1875 C90.08019531 60.85234375 88.97289062 60.5171875 87.83203125 60.171875 C78.49560519 57.60613959 68.99171479 56.07308766 59.4375 54.5625 C58.14207275 54.35625 56.84664551 54.15 55.51196289 53.9375 C37.92333064 51.24784631 20.48526702 49.77225012 2.6875 49.8125 C1.30884766 49.81331573 1.30884766 49.81331573 -0.09765625 49.81414795 C-28.18527831 49.88960687 -55.6201019 52.9855422 -82.8125 60.1875 C-84.28517334 60.57180176 -84.28517334 60.57180176 -85.78759766 60.96386719 C-118.38632775 69.654681 -157.25635993 86.11375575 -175.8125 116.1875 C-175.8125 116.8475 -175.8125 117.5075 -175.8125 118.1875 C-176.4725 118.1875 -177.1325 118.1875 -177.8125 118.1875 C-180.88602108 110.77811881 -182.53466822 103.36165875 -179.93359375 95.546875 C-175.77463713 86.597569 -169.52281912 80.38315631 -161.6328125 74.6328125 C-159.6938785 73.30225005 -159.6938785 73.30225005 -158.8125 71.1875 C-158.45377355 67.31325435 -158.24539271 65.03816094 -160.4375 61.75 C-163.53092784 59.71485011 -165.15099738 59.79664021 -168.8125 60.1875 C-180.87743541 67.47930038 -192.73625845 80.85969289 -196.4765625 94.6328125 C-198.34997184 108.87943698 -195.81738809 119.33813457 -187.125 130.875 C-155.46760739 170.81788628 -95.0324889 183.88171866 -47.1875 189.8125 C-46.19886963 189.93584717 -45.21023926 190.05919434 -44.19165039 190.1862793 C-28.0383608 192.09810692 -11.93529856 192.4252452 4.3125 192.4375 C5.36631866 192.43883942 6.42013733 192.44017883 7.50588989 192.44155884 C24.92112867 192.43677656 41.93344375 191.66415879 59.1875 189.1875 C60.39696289 189.01927734 60.39696289 189.01927734 61.63085938 188.84765625 C65.73160336 188.25714912 69.78610421 187.52959067 73.84228516 186.67822266 C75.58467012 186.31363867 77.32956704 185.96101739 79.07568359 185.61474609 C114.15415807 178.63130727 150.08140234 167.12143418 178.1875 144.1875 C179.49654297 143.14335937 179.49654297 143.14335937 180.83203125 142.078125 C191.02328686 133.49931075 199.9057559 121.79568863 201.69921875 108.3515625 C202.72555257 94.74278595 197.73765816 84.17550114 188.99414062 73.95703125 C178.49927804 62.40582302 165.95354261 54.31370988 152.1875 47.1875 C151.48447754 46.8177002 150.78145508 46.44790039 150.05712891 46.06689453 C87.67888222 13.60316488 5.57363025 8.25622606 -62.8125 20.1875 Z " fill="#8AB5BE" transform="translate(253.8125,141.8125)"/>
<path d="M0 0 C2.71962608 0.01076886 5.43859607 -0.00000967 8.15820312 -0.01269531 C19.92409029 -0.02236211 31.41962577 0.78295251 43.08789062 2.26074219 C44.78993652 2.46376953 44.78993652 2.46376953 46.52636719 2.67089844 C88.35271182 7.86738314 131.50490708 20.79285213 162.27148438 50.81542969 C164.08789062 53.26074219 164.08789062 53.26074219 164.26367188 55.31152344 C162.45947551 58.30253337 159.75792264 59.80683172 156.83789062 61.57324219 C156.21688477 61.95915527 155.59587891 62.34506836 154.95605469 62.74267578 C142.19569127 70.58155356 142.19569127 70.58155356 136.08789062 73.26074219 C135.42789062 72.93074219 134.76789063 72.60074219 134.08789062 72.26074219 C134.4978125 71.8134375 134.90773438 71.36613281 135.33007812 70.90527344 C139.3882273 66.35199123 141.77424623 63.08354175 142.46289062 56.88574219 C141.91336624 51.57367314 140.0946573 48.15868203 136.28710938 44.55761719 C129.81704756 39.38156773 123.4054072 37.88101571 115.15039062 37.94824219 C114.09489014 37.95452637 114.09489014 37.95452637 113.01806641 37.9609375 C105.10208577 38.13346293 99.33971646 40.28769891 93.08789062 45.26074219 C89.64190534 48.97877894 88.80460224 51.81926555 88.65039062 56.76074219 C88.89435225 62.22400413 89.6629924 65.94968895 93.75195312 69.84667969 C103.46620671 77.78063181 113.12261358 77.65713787 125.08789062 77.26074219 C122.46984231 79.87879051 119.54121866 80.68835515 116.11523438 81.87011719 C115.40919571 82.11755173 114.70315704 82.36498627 113.97572327 82.61991882 C111.66191267 83.42576739 109.34437351 84.21990728 107.02539062 85.01074219 C106.23302002 85.28185822 105.44064941 85.55297424 104.62426758 85.83230591 C90.9436779 90.49135432 77.26469889 94.39594163 63.08789062 97.26074219 C61.89470215 97.504375 60.70151367 97.74800781 59.47216797 97.99902344 C55.74325453 98.7506845 52.01102842 99.480787 48.27539062 100.19824219 C47.11716797 100.4224585 45.95894531 100.6466748 44.765625 100.87768555 C43.68990234 101.07499268 42.61417969 101.2722998 41.50585938 101.47558594 C40.55477295 101.65210693 39.60368652 101.82862793 38.6237793 102.01049805 C36.12224231 102.25735233 34.45602941 102.04339379 32.08789062 101.26074219 C33.40098197 98.6345595 34.7078424 98.38109615 37.33789062 97.13574219 C42.27179518 94.44452152 45.09803012 91.55434238 47.08789062 86.26074219 C48.13298976 81.32027356 47.52754516 77.42535515 45.08789062 73.01074219 C40.92381934 67.08903175 34.94468244 64.14122761 28.08789062 62.26074219 C18.2587159 61.33804298 9.36195647 61.18757786 1.08789062 67.26074219 C-4.04365633 71.74717901 -4.04365633 71.74717901 -6.24804688 77.96777344 C-6.32684423 84.23216296 -6.37126529 88.44003309 -1.91210938 93.26074219 C5.11744025 100.29029181 14.53125968 101.89737219 24.08789062 102.26074219 C24.08789062 102.59074219 24.08789062 102.92074219 24.08789062 103.26074219 C-15.03999758 109.11004913 -64.08542351 111.47143881 -101.91210938 98.26074219 C-103.56527977 97.71502897 -105.21895025 97.17082896 -106.87304688 96.62792969 C-127.7980465 89.64499692 -148.17561567 80.98227719 -164.91210938 66.26074219 C-159.42387237 47.7907138 -139.95749805 36.13876427 -123.9987793 27.35742188 C-107.74223475 18.65594387 -91.24357221 13.2232122 -73.36425781 8.86572266 C-70.45090314 8.14695594 -67.55875859 7.35623 -64.66210938 6.57324219 C-43.61483612 1.41013042 -21.59969907 -0.10122426 0 0 Z " fill="#FAC880" transform="translate(252.912109375,206.7392578125)"/>
<path d="M0 0 C1.18250336 -0.00626404 2.36500671 -0.01252808 3.58334351 -0.01898193 C29.88157238 -0.1071138 55.34480678 2.69927733 81 8.4375 C82.3528305 8.72411924 83.70569087 9.01059757 85.05859375 9.296875 C113.96330087 15.89299761 142.90199479 26.50819555 166 45.4375 C166.68964844 45.98019531 167.37929688 46.52289063 168.08984375 47.08203125 C175.08305754 52.81351357 182.12692387 60.73714833 183.3359375 70.015625 C183.43409162 76.72936697 182.25099018 81.55959364 179 87.4375 C178.34 87.4375 177.68 87.4375 177 87.4375 C175.81721868 85.89685151 174.70555431 84.30149251 173.625 82.6875 C153.66192148 54.84613514 119.82685655 41.03773214 88 31.4375 C86.89269531 31.10234375 85.78539062 30.7671875 84.64453125 30.421875 C75.30810519 27.85613959 65.80421479 26.32308766 56.25 24.8125 C54.95457275 24.60625 53.65914551 24.4 52.32446289 24.1875 C34.73583064 21.49784631 17.29776702 20.02225012 -0.5 20.0625 C-1.87865234 20.06331573 -1.87865234 20.06331573 -3.28515625 20.06414795 C-31.37277831 20.13960687 -58.8076019 23.2355422 -86 30.4375 C-86.98178223 30.69370117 -87.96356445 30.94990234 -88.97509766 31.21386719 C-121.13073493 39.78655255 -160.0020937 55.8421807 -177.84375 85.8203125 C-178.2253125 86.35398437 -178.606875 86.88765625 -179 87.4375 C-179.66 87.4375 -180.32 87.4375 -181 87.4375 C-184.65701867 80.82547964 -186.20631209 74.98495707 -185 67.4375 C-181.60830685 57.01234181 -173.46324176 49.03882858 -165 42.4375 C-164.34 42.4375 -163.68 42.4375 -163 42.4375 C-163.07863281 41.73625 -163.15726563 41.035 -163.23828125 40.3125 C-163.32472151 36.96407733 -163.13416604 34.60734867 -162 31.4375 C-157.53478732 27.41066725 -152.29107133 23.82819981 -146.203125 23.10546875 C-144 23.4375 -144 23.4375 -142 25.4375 C-136.35833301 26.20174408 -132.10916075 24.06820296 -127.0625 21.875 C-86.40490177 5.01934996 -43.62874475 0.10779845 0 0 Z " fill="#C6DEE3" transform="translate(257,172.5625)"/>
<path d="M0 0 C-7.3074586 47.4636835 -42.44223958 92.91204724 -80.0625 121.0625 C-102.21314741 137.21443187 -128.18273139 150.37489323 -155 156.5625 C-156.35883301 156.87610474 -156.35883301 156.87610474 -157.74511719 157.19604492 C-160.49308915 157.81599084 -163.24454065 158.41428877 -166 159 C-166.79470703 159.16951172 -167.58941406 159.33902344 -168.40820312 159.51367188 C-182.24545672 162.35178091 -195.91914786 162.3362849 -210 162 C-207.41228497 160.64735529 -204.89758505 159.56896668 -202.11328125 158.6953125 C-181.37472912 151.95742433 -161.79269701 142.64604911 -144 130 C-142.94039063 129.25234375 -141.88078125 128.5046875 -140.7890625 127.734375 C-123.61775081 115.20517644 -107.99171911 100.8107418 -95.29101562 83.73535156 C-94.44992887 82.60478336 -93.60255486 81.47885704 -92.74804688 80.35839844 C-87.02319226 72.85076421 -82.08999228 64.9918807 -77.375 56.8125 C-76.84140869 55.89073975 -76.30781738 54.96897949 -75.75805664 54.01928711 C-75.02317017 52.72003296 -75.02317017 52.72003296 -74.2734375 51.39453125 C-73.83435059 50.61956299 -73.39526367 49.84459473 -72.94287109 49.04614258 C-71.79074583 46.92138229 -71.79074583 46.92138229 -72 44 C-69.51328419 42.34218946 -67.47880849 41.29198322 -64.74609375 40.1875 C-42.18424708 30.90263904 -20.86460961 19.62135337 -3.8515625 1.7421875 C-2 0 -2 0 0 0 Z " fill="#C7E0E5" transform="translate(464,298)"/>
<path d="M0 0 C1.61845225 1.43141413 3.14955464 2.91680614 4.65625 4.46484375 C5.3575 3.49546875 6.05875 2.52609375 6.78125 1.52734375 C8.78534173 -0.85605347 9.62647192 -1.52398947 12.65625 -2.66015625 C15.65625 -2.53515625 15.65625 -2.53515625 18.53125 -1.03515625 C20.65625 1.46484375 20.65625 1.46484375 21.34375 4.71484375 C20.32423817 10.27581736 17.46840958 14.48921266 12.8046875 17.765625 C12.19882813 18.14074219 11.59296875 18.51585937 10.96875 18.90234375 C7.22530054 21.34621141 6.60239164 23.87331589 5.4453125 28.0625 C2.44583252 37.19458013 -4.15445585 42.76429271 -12.40625 47.05859375 C-35.96392086 57.9807866 -64.57840243 57.16188586 -88.96875 49.15234375 C-97.22649787 45.96380295 -103.12314662 41.58384837 -108.34375 34.46484375 C-110.1747596 28.97181495 -110.42044636 22.63190671 -108.54296875 17.109375 C-104.20616129 9.40446278 -97.39003527 5.86571567 -89.14257812 3.52563477 C-79.75570343 1.04789582 -70.23091575 -0.88937397 -60.70483398 -2.74829102 C-55.41146277 -3.79947905 -50.40405505 -5.11452971 -45.30834961 -6.88549805 C-30.39412142 -11.81736846 -12.23739331 -9.77435864 0 0 Z " fill="#040302" transform="translate(237.34375,234.53515625)"/>
<path d="M0 0 C4.97361226 3.47977112 9.03730874 7.11192621 11 13 C12.0055723 20.75727204 8.51416761 26.04778618 4 32 C7.19162699 30.27837361 10.37749234 28.54633715 13.5625 26.8125 C14.45775391 26.32974609 15.35300781 25.84699219 16.27539062 25.34960938 C22.23986301 22.09427463 28.15756341 18.84243659 33 14 C34.06096463 15.57046743 35.09826235 17.15694517 36.125 18.75 C36.70507812 19.63171875 37.28515625 20.5134375 37.8828125 21.421875 C39 24 39 24 38.50390625 26.078125 C23.27740494 45.53640719 -12.16561827 55.18716598 -35 61 C-35.72880371 61.19158691 -36.45760742 61.38317383 -37.20849609 61.58056641 C-47.67961315 64.31726292 -58.18271041 66.50549467 -68.875 68.1875 C-69.84018555 68.3421875 -70.80537109 68.496875 -71.79980469 68.65625 C-90.15074555 71.39964707 -108.51727504 72.33459253 -127.05371094 72.26074219 C-130.26255971 72.24995779 -133.47085473 72.26075437 -136.6796875 72.2734375 C-149.2484372 72.28258962 -161.54234526 71.6727152 -174 70 C-175.26231445 69.83274414 -176.52462891 69.66548828 -177.82519531 69.49316406 C-181.2212717 69.02135703 -184.61073992 68.51830979 -188 68 C-189.10988281 67.835 -190.21976563 67.67 -191.36328125 67.5 C-198.26757742 66.46151597 -205.1387863 65.29249316 -212 64 C-212 63.67 -212 63.34 -212 63 C-208.83308393 63.14070156 -205.66653622 63.28851269 -202.5 63.4375 C-201.613125 63.47681641 -200.72625 63.51613281 -199.8125 63.55664062 C-198.9359375 63.59853516 -198.059375 63.64042969 -197.15625 63.68359375 C-196.36025391 63.72025146 -195.56425781 63.75690918 -194.74414062 63.79467773 C-192.54984502 63.95885946 -190.36283217 64.21931496 -188.18188477 64.51147461 C-184.0978451 65.03712265 -180.04778118 65.14452551 -175.93359375 65.1328125 C-175.1853685 65.13417709 -174.43714325 65.13554169 -173.66624451 65.13694763 C-171.25661658 65.13895733 -168.84711518 65.13268956 -166.4375 65.125 C-165.61485657 65.12378143 -164.79221313 65.12256287 -163.94464111 65.12130737 C-146.90895733 65.09167181 -129.9638656 64.63926375 -113 63 C-114.16015625 62.76216797 -114.16015625 62.76216797 -115.34375 62.51953125 C-125.26783072 60.29643891 -131.93450586 57.27112837 -138 49 C-140.11174029 44.77651942 -139.49465212 39.58730956 -139 35 C-136.59816034 28.29690666 -130.03762794 25.04951377 -124 22 C-114.69052347 18.89684116 -103.15228396 20.24274149 -94.46484375 24.4375 C-89.52426818 27.5694021 -86.30597849 31.653395 -84 37 C-82.96934374 42.18301177 -83.71574596 46.23384855 -86.4375 50.75 C-89.7947586 55.34710949 -93.85800361 57.72609493 -99 60 C-95.19614373 61.26795209 -92.28892073 60.53881674 -88.45703125 59.8125 C-87.70514526 59.67494293 -86.95325928 59.53738586 -86.17858887 59.3956604 C-83.72111565 58.94096164 -81.26665288 58.47227582 -78.8125 58 C-77.97399506 57.84005554 -77.13549011 57.68011108 -76.27157593 57.51531982 C-53.11261056 53.06843099 -31.19375645 45.91206337 -9 38 C-9.88300781 38.04640625 -10.76601563 38.0928125 -11.67578125 38.140625 C-23.2794978 38.48960896 -31.6852469 36.72486192 -40.44140625 28.87890625 C-44.27547888 24.25687884 -44.43293069 19.43586207 -44.31640625 13.65625 C-43.7255515 8.69598792 -41.17218693 6.07964586 -37.625 2.8125 C-27.4340231 -4.22412691 -11.18126052 -6.32565336 0 0 Z " fill="#F7AE43" transform="translate(385,247)"/>
<path d="M0 0 C4.17576216 0.66468124 7.73660508 2.04506268 11.625 3.6875 C23.44725341 8.53198494 35.61322479 12.37422157 48.0625 15.25 C49.01346558 15.47647217 49.01346558 15.47647217 49.98364258 15.70751953 C65.50856128 19.08805295 81.43043829 19.43963113 97.25 19.4375 C98.25180298 19.43889984 99.25360596 19.44029968 100.2857666 19.44174194 C117.67294855 19.42186989 134.04103218 17.99778521 151 14 C151.93199219 13.78118164 152.86398437 13.56236328 153.82421875 13.33691406 C162.47618488 11.23782184 170.84284502 8.58968396 179 5 C181.14352186 4.07794115 183.28944602 3.1614508 185.4375 2.25 C186.42621094 1.82203125 187.41492188 1.3940625 188.43359375 0.953125 C191 0 191 0 194 0 C193.38913616 8.5520937 190.53251201 16.10950391 184 22 C173.71054508 29.40916551 161.83358895 33.43460226 149.5625 36.125 C148.42417725 36.37652832 147.28585449 36.62805664 146.11303711 36.88720703 C142.74632348 37.61441906 139.37529128 38.31381441 136 39 C135.11699219 39.18369141 134.23398437 39.36738281 133.32421875 39.55664062 C96.34965599 46.95745024 45.89936262 44.48707069 13.2265625 24.28515625 C5.95594861 19.09690265 1.85325842 12.760858 0 4 C0 2.68 0 1.36 0 0 Z " fill="#8AB6BE" transform="translate(159,455)"/>
<path d="M0 0 C1.15592651 -0.02211548 1.15592651 -0.02211548 2.33520508 -0.04467773 C7.89892459 0.05681229 12.211648 1.5047578 16.875 4.5625 C19.69403679 7.63781286 19.86253927 9.18244761 20 13.375 C18.89318923 19.54983903 14.70787918 23.5851196 9.71484375 27.0703125 C-8.07327957 36.98889879 -32.97192816 35.54781602 -52.125 30.5625 C-64.01906615 26.58493892 -64.01906615 26.58493892 -67.125 22.5625 C-67.3125 19.375 -67.3125 19.375 -67.125 16.5625 C-60.38275966 11.829468 -52.73557099 10.71436567 -44.8125 9.125 C-41.91502234 8.52856933 -39.01956464 7.92290193 -36.125 7.3125 C-35.42054245 7.16450455 -34.7160849 7.01650909 -33.99028015 6.86402893 C-28.66195576 5.72501631 -23.50325674 4.2634249 -18.3125 2.625 C-12.19469958 0.7760583 -6.39133137 0.07849329 0 0 Z " fill="#F97E84" transform="translate(210.125,240.4375)"/>
<path d="M0 0 C2.5 1.375 2.5 1.375 4 4 C5.47455201 12.55547366 2.32519928 18.84785843 -1.75 26.125 C-3.39883382 29.91731778 -3.60026925 31.86481185 -3 36 C-1.60356866 39.16275074 -0.05981617 42.19244257 1.58984375 45.23046875 C4.93782015 51.80585731 5.20748732 59.71999546 3.2109375 66.796875 C1.77642563 70.41053085 0.1211184 73.77939148 -1.75 77.1875 C-3.42072527 80.94663186 -3.59715588 82.88625949 -3 87 C-1.60556087 90.19558967 -0.05903227 93.25645997 1.58984375 96.328125 C4.32374771 101.50815356 4.65049896 106.23978457 4 112 C2.5 114.625 2.5 114.625 0 116 C-2.81273009 116.59367049 -5.193809 116.65246828 -8 116 C-11.6457765 112.92987242 -12.41426968 109.81924888 -13.3671875 105.25390625 C-14.36877751 101.68651468 -16.13294448 98.55047735 -17.87890625 95.296875 C-21.01331317 88.87516325 -21.11042843 80.98544859 -19.2109375 74.16796875 C-17.8296613 70.65151368 -16.34764617 67.52146925 -14.25 64.375 C-12.39234189 60.84544959 -12.17569856 57.82527388 -13 54 C-14.37163211 51.05262385 -15.90886218 48.29739119 -17.58984375 45.515625 C-21.10090109 39.25213213 -20.91423525 31.36950669 -19.46875 24.4609375 C-18.329876 20.85862952 -16.88236141 17.67165156 -14.9375 14.4375 C-13.32563987 11.57774817 -12.61311837 9.84095402 -11.9375 6.75 C-11 3 -11 3 -9.875 1 C-6.6845293 -0.70158437 -3.46752055 -0.59303671 0 0 Z " fill="#000000" transform="translate(264,0)"/>
<path d="M0 0 C4.23298877 3.01193431 6.29156814 5.38652261 8.1875 10.25 C9.04589918 15.95935272 8.41334253 20.35561824 5.1875 25.25 C0.78015665 30.72579022 -4.92192874 34.57967929 -11.96777344 35.54541016 C-23.66891139 36.49838943 -32.50983217 35.47987331 -41.75 27.8125 C-45.68221535 22.92702033 -47.47816852 18.81791072 -47.21484375 12.55078125 C-46.12918342 6.3424906 -42.45736414 2.41893827 -37.4375 -1.125 C-25.28432312 -8.46879161 -11.82328873 -7.20180779 0 0 Z " fill="#040302" transform="translate(323.8125,229.75)"/>
<path d="M0 0 C4.94057557 3.1319021 8.15886526 7.215895 10.46484375 12.5625 C11.49550001 17.74551177 10.74909779 21.79634855 8.02734375 26.3125 C3.51562023 32.39536488 -2.94928264 35.76956763 -10.3125 37.27734375 C-20.18994527 38.54457311 -28.6296105 37.83312117 -36.86328125 31.87890625 C-41.15970986 28.28567009 -44.13847412 25.52300135 -44.90625 19.79296875 C-45.03066126 14.09200593 -45.11555678 9.56624545 -41.30078125 5.09375 C-29.63501814 -5.02346049 -13.85936638 -6.69203973 0 0 Z " fill="#030302" transform="translate(290.53515625,271.4375)"/>
<path d="M0 0 C4.97361226 3.47977112 9.03730874 7.11192621 11 13 C11.77202873 18.95565019 10.31257385 23.14485445 7 28 C1.51244336 34.64926779 -6.48835708 37.25497792 -14.83203125 38.3828125 C-24.84232822 38.81243898 -33.04051941 35.51047013 -40.44140625 28.87890625 C-44.27547888 24.25687884 -44.43293069 19.43586207 -44.31640625 13.65625 C-43.7255515 8.69598792 -41.17218693 6.07964586 -37.625 2.8125 C-27.4340231 -4.22412691 -11.18126052 -6.32565336 0 0 Z " fill="#030302" transform="translate(385,247)"/>
<path d="M0 0 C3.41349145 2.71456815 4.54670885 4.91063636 5.4375 9.125 C6.38584509 13.12385514 7.57165315 16.17495649 9.6875 19.6875 C13.11408275 26.25859924 13.33126878 33.79166661 12 41 C10.72747049 44.35827313 9.26906192 47.28414842 7.41015625 50.3515625 C5.53416872 53.87488533 4.61012193 57.08340312 5.41796875 61.0546875 C5.67191406 61.65539062 5.92585938 62.25609375 6.1875 62.875 C6.4659375 63.55949219 6.744375 64.24398437 7.03125 64.94921875 C7.95811823 66.99697427 7.95811823 66.99697427 9.09375 68.83203125 C12.64322823 74.85346753 13.04496093 81.11832034 12 88 C10.75390625 89.86328125 10.75390625 89.86328125 9 91 C6.84375 91.3984375 6.84375 91.3984375 4.5 91.375 C3.33984375 91.38660156 3.33984375 91.38660156 2.15625 91.3984375 C-0.56675175 90.89527413 -1.37783645 90.22926068 -3 88 C-3.7734375 85.65234375 -3.7734375 85.65234375 -4.375 82.9375 C-5.36765736 78.91934973 -6.61311905 75.61329194 -8.625 72 C-12.44162446 64.72419929 -12.83642061 57.08874862 -10.8125 49.17578125 C-9.91198908 46.76431692 -8.72472805 44.75197362 -7.375 42.5625 C-4.52540244 37.64588092 -3.80527962 33.58900012 -5 28 C-6.38854269 24.89837358 -7.9644007 21.95046957 -9.5859375 18.96484375 C-11.6218605 14.69615436 -12.39738119 10.71674193 -12 6 C-9.38348971 -0.10519068 -6.4153028 -0.55304335 0 0 Z " fill="#000000" transform="translate(199,25)"/>
<path d="M0 0 C4.11257232 0.58751033 4.92936163 1.34976049 7.5 4.5 C8.37109375 6.98046875 8.37109375 6.98046875 8.9375 9.6875 C9.87425182 13.59494543 10.98778853 16.60128262 13.125 20 C17.20393355 26.90091477 17.26810049 34.67836404 15.3125 42.32421875 C14.41198908 44.73568308 13.22472805 46.74802638 11.875 48.9375 C9.02540244 53.85411908 8.30527962 57.91099988 9.5 63.5 C10.88854269 66.60162642 12.4644007 69.54953043 14.0859375 72.53515625 C16.11985858 76.79964823 16.90571202 80.78683488 16.5 85.5 C15.35214593 88.05658406 14.44116804 89.55883196 12.5 91.5 C4.76657736 92.43971869 4.76657736 92.43971869 1.5625 90.0625 C0.31863885 87.06259958 -0.21699532 84.12953274 -0.83203125 80.94921875 C-1.78997917 77.43674304 -3.5061538 74.54619045 -5.37890625 71.4453125 C-8.81322086 65.48611851 -8.45858976 57.18640084 -7.5 50.5 C-6.24442184 47.12046478 -4.77540483 44.22631814 -2.91015625 41.1484375 C-1.03416872 37.62511467 -0.11012193 34.41659688 -0.91796875 30.4453125 C-1.17191406 29.84460938 -1.42585938 29.24390625 -1.6875 28.625 C-1.9659375 27.94179688 -2.244375 27.25859375 -2.53125 26.5546875 C-3.46244503 24.5004629 -3.46244503 24.5004629 -4.59375 22.6328125 C-7.91289268 16.91914546 -8.7693651 11.03349682 -7.5 4.5 C-4.99965648 1.28835185 -4.10323559 0.58617651 0 0 Z " fill="#000000" transform="translate(307.5,24.5)"/>
<path d="M0 0 C2.44703461 2.18910393 2.99350376 2.97540708 3.875 6.3125 C4.04813649 11.42002651 2.79042834 13.99507046 -0.59765625 17.7890625 C-5.76262105 22.77373079 -11.14210517 25.10455407 -18 27 C-18.78375 27.22558594 -19.5675 27.45117188 -20.375 27.68359375 C-38.84015496 31.97437495 -63.27916634 30.31325845 -80 21 C-80.33 20.34 -80.66 19.68 -81 19 C-80.21882812 19.2165625 -79.43765625 19.433125 -78.6328125 19.65625 C-57.28544291 24.79102932 -29.52456378 24.85902271 -10.125 13.375 C-5.2424638 9.92431868 -2.65081814 5.26005482 0 0 Z " fill="#F15F6A" transform="translate(226,245)"/>
<path d="M0 0 C1.625 1.0234375 1.625 1.0234375 3.8125 3.2109375 C3.8125 4.2009375 3.8125 5.1909375 3.8125 6.2109375 C-2.32138408 9.84583177 -7.05290375 11.19953765 -14.1875 10.2109375 C-19.60326819 8.31066796 -19.60326819 8.31066796 -21.25 5.2109375 C-21.1875 3.2109375 -21.1875 3.2109375 -19.9375 1.5234375 C-14.89644797 -2.25735152 -5.74649742 -2.07284371 0 0 Z " fill="#79C75D" transform="translate(282.1875,283.7890625)"/>
<path d="M0 0 C1.62890625 0.82421875 1.62890625 0.82421875 3.81640625 2.32421875 C3.81640625 3.64421875 3.81640625 4.96421875 3.81640625 6.32421875 C-1.80468847 10.31815448 -6.38126838 11.10481346 -13.18359375 10.32421875 C-15.84592114 9.24895778 -17.80602337 7.97818076 -20.18359375 6.32421875 C-19.93359375 3.94921875 -19.93359375 3.94921875 -19.18359375 1.32421875 C-14.11051723 -2.1980832 -5.70159388 -1.76453621 0 0 Z " fill="#79C65C" transform="translate(376.18359375,259.67578125)"/>
<path d="M0 0 C-0.35293141 2.5587527 -0.82368269 3.8098877 -2.59765625 5.72265625 C-5.94958841 7.50490311 -8.65869583 7.4337549 -12.4375 7.4375 C-14.38462891 7.46650391 -14.38462891 7.46650391 -16.37109375 7.49609375 C-20.45308832 6.93806005 -22.08706679 5.83435698 -25 3 C-24.9375 1.1875 -24.9375 1.1875 -24 -1 C-15.31857486 -5.96081436 -8.48765975 -4.40100876 0 0 Z " fill="#79C75C" transform="translate(317,243)"/>
<path d="M0 0 C1.31571603 0.2547514 2.62760376 0.52934141 3.9375 0.8125 C4.66839844 0.96332031 5.39929688 1.11414063 6.15234375 1.26953125 C6.76207031 1.51058594 7.37179688 1.75164062 8 2 C8.33 2.99 8.66 3.98 9 5 C5.22454612 3.90931332 2.52956528 3.0916909 0 0 Z " fill="#DE5B64" transform="translate(145,264)"/>
</svg>
