<?xml version="1.0" encoding="UTF-8"?>
<svg version="1.1" xmlns="http://www.w3.org/2000/svg" width="512" height="512">
<path d="M0 0 C0.46148438 0.35191406 0.92296875 0.70382812 1.3984375 1.06640625 C52.97903234 40.10863515 121.86094783 50.19660649 185 54 C186.02746338 54.06355179 186.02746338 54.06355179 187.07568359 54.12838745 C201.09392067 54.97729564 215.08306703 55.20199698 229.125 55.1875 C230.21605042 55.18689575 231.30710083 55.1862915 232.43121338 55.18566895 C289.63690038 55.10021733 348.69485746 49.92587108 403 31 C403.68271973 30.76458496 404.36543945 30.52916992 405.06884766 30.28662109 C424.08521913 23.66018546 442.86769222 15.27686882 457.58203125 1.1796875 C459 0 459 0 461 0 C457.01944437 61.56135178 434.4452419 120.96727363 387.43798828 162.37597656 C344.35456904 198.69878256 285.92207649 210.19945046 231 210.25 C229.84162628 210.25151062 229.84162628 210.25151062 228.65985107 210.25305176 C165.1177896 210.19776244 105.00174993 193.35221732 58.4375 148.8125 C22.48913069 111.96674115 -0.65868873 53.268732 -0.03955078 1.85571289 C-0.02649902 1.24332764 -0.01344727 0.63094238 0 0 Z M50 71 C47.36657659 78.90027024 48.46487831 87.71634381 51.609375 95.30078125 C55.9001266 103.62917832 61.85269451 112.56010351 71.10546875 115.71875 C74.73448159 116.42685007 76.68823576 116.18299205 79.875 114.3125 C84.05982339 109.75842749 84.44501257 106.0386448 84.30859375 99.99609375 C83.27973115 90.00701005 77.96265152 79.60468977 70.6171875 72.7890625 C63.75981061 67.38694888 57.19688027 63.59144678 50 71 Z M89.4375 126.4375 C87.7399455 129.46357541 87.69910674 131.57113481 88.3203125 134.96875 C89.70336119 139.10199895 92.37188736 141.80605073 95.875 144.375 C99.07424235 145.31595363 101.69144365 145.36093342 105 145 C107.18547684 143.55851025 107.18547684 143.55851025 108 141 C108.18525079 136.18347953 106.83392631 133.32341163 103.9375 129.625 C101.38909544 126.92977377 99.48899792 125.4247131 95.8125 124.75 C92.0667197 124.72049639 92.0667197 124.72049639 89.4375 126.4375 Z " fill="#000000" transform="translate(5,263)"/>
<path d="M0 0 C-1.27100803 3.41733291 -2.76055485 6.32665662 -4.75 9.375 C-10.35650554 18.52173139 -15.89316261 30.10341614 -15 41 C-12.7259156 48.205387 -9.21788474 53.35801841 -2.53475952 57.1033783 C2.67248239 59.63456341 7.60452869 59.56954142 13.30615234 59.53344727 C14.41291824 59.54206284 15.51968414 59.55067841 16.6599884 59.55955505 C20.30221243 59.58217374 23.94366438 59.57548253 27.5859375 59.56640625 C30.12887805 59.57164404 32.67181665 59.57792109 35.2147522 59.58518982 C40.53910486 59.59558689 45.86317991 59.59137455 51.1875 59.57641602 C57.32026135 59.55950764 63.4523102 59.57531991 69.58499372 59.6076389 C75.51064474 59.63767036 81.43607634 59.6394954 87.36180496 59.6301403 C89.87110953 59.62932253 92.3804291 59.63615251 94.8896904 59.65091133 C98.40533403 59.66841867 101.91947416 59.65376022 105.43505859 59.63110352 C106.46187241 59.64279572 107.48868622 59.65448792 108.5466156 59.66653442 C115.6246139 59.57418187 121.0995038 58.00383546 127 54 C133.22575411 47.51248639 134.37384667 40.28692961 134.2734375 31.53125 C133.90573338 26.78261387 132.83239376 22.35736246 131.55859375 17.77734375 C130.99185768 14.95951615 131.21379279 13.68444368 132 11 C161.88398402 16.17943623 205.62356235 25.00289331 227 49 C227 50.32 227 51.64 227 53 C225.01310888 54.65160325 223.19478934 55.92950781 221 57.25 C220.05918579 57.83261597 220.05918579 57.83261597 219.09936523 58.42700195 C211.96779359 62.75980798 204.57353075 66.50808201 197 70 C195.92492187 70.50015625 194.84984375 71.0003125 193.7421875 71.515625 C120.69975584 102.9428651 29.45613923 104.24452026 -167.484375 72.30859375 C-180.35875268 67.10074531 -193.14517453 60.7215962 -204 52 C-181.7196671 21.20071629 -125.17509355 13.34244479 -90.62158203 7.57470703 C-60.73414187 2.83188418 -30.29161396 -0.2157124 0 0 Z " fill="#000000" transform="translate(223,206)"/>
<path d="M0 0 C6.50619493 5.20495595 11.82134119 11.7260342 12.8125 20.25 C13.65211434 28.5285974 11.94135185 36.03708537 6.9296875 42.78515625 C4.64193011 45.37220806 2.2637636 47.81741981 -0.1875 50.25 C-1.095 51.18199219 -2.0025 52.11398438 -2.9375 53.07421875 C-6.81196889 57.02941965 -10.73203895 60.87932052 -14.93359375 64.48828125 C-19.7573435 68.67371903 -24.20986035 73.20048812 -28.6875 77.75 C-37.6411549 86.84737328 -37.6411549 86.84737328 -42.15625 90.71875 C-47.09917665 94.96188046 -51.61856357 99.61183726 -56.1875 104.25 C-61.36929994 109.51031206 -66.55810882 114.64250747 -72.1640625 119.44921875 C-76.18563052 123.02825901 -79.91266986 126.91457869 -83.6875 130.75 C-92.6411549 139.84737328 -92.6411549 139.84737328 -97.15625 143.71875 C-102.09917665 147.96188046 -106.61856357 152.61183726 -111.1875 157.25 C-116.36644603 162.50741491 -121.5522313 167.63661607 -127.15527344 172.44042969 C-131.22283356 176.0623369 -134.99324595 179.99512287 -138.8125 183.875 C-143.77450186 188.91502076 -148.69836161 193.78846942 -154.1875 198.25 C-156.0511942 200.76193566 -156.21855826 201.80483155 -156 204.9375 C-155.32353007 208.04224918 -155.32353007 208.04224918 -154.4453125 210.07421875 C-152.40102886 215.18492785 -151.8351898 220.01924873 -151.75 225.5 C-151.72800537 226.18562012 -151.70601074 226.87124023 -151.68334961 227.57763672 C-151.69769569 231.13981225 -152.11627294 233.13688357 -154.02734375 236.171875 C-157.09884239 239.12673445 -159.56424575 239.37513536 -163.65267944 239.39044189 C-164.56672043 239.39615204 -165.48076141 239.40186218 -166.42250061 239.40774536 C-167.42309006 239.40886322 -168.4236795 239.40998108 -169.45458984 239.41113281 C-170.51013565 239.41609772 -171.56568146 239.42106262 -172.6532135 239.42617798 C-176.15162808 239.44080567 -179.64999734 239.4476023 -183.1484375 239.453125 C-185.57597861 239.45887552 -188.00351971 239.46463326 -190.43106079 239.47039795 C-195.52370414 239.48090937 -200.6163317 239.48675126 -205.70898438 239.49023438 C-212.23833873 239.49572234 -218.7674849 239.51975644 -225.29677391 239.54820633 C-230.31188571 239.5668176 -235.32694719 239.57203749 -240.34209061 239.57357025 C-242.74946863 239.57660022 -245.1568457 239.58464028 -247.56418991 239.59775543 C-250.93016218 239.61478553 -254.29562338 239.61294298 -257.66162109 239.60644531 C-258.65816208 239.6156601 -259.65470306 239.62487488 -260.68144226 239.6343689 C-269.25083403 239.5824767 -269.25083403 239.5824767 -273.1875 236.25 C-275.72497937 232.44378094 -275.86706924 229.6459635 -275.1875 225.25 C-271.33745069 213.06390644 -264.380088 201.96798618 -256.1875 192.25 C-255.50945312 191.42628906 -254.83140625 190.60257813 -254.1328125 189.75390625 C-245.140397 179.24142052 -232.39604333 169.02606792 -218.1875 167.25 C-210.50640976 166.6899205 -203.97865519 167.33930192 -196.625 169.5625 C-193.27987666 170.50599633 -190.62735961 170.80037754 -187.1875 170.25 C-185.4184654 168.63041832 -183.81001629 167.00749548 -182.1875 165.25 C-181.39545166 164.4144458 -181.39545166 164.4144458 -180.58740234 163.56201172 C-178.82006378 161.69544705 -177.06481808 159.81816884 -175.3125 157.9375 C-174.68899658 157.26887939 -174.06549316 156.60025879 -173.4230957 155.91137695 C-169.82188657 152.03855639 -166.26904108 148.13534717 -162.81640625 144.12890625 C-158.57778533 139.23975358 -154.19590736 134.47407526 -149.859375 129.671875 C-146.46405062 125.9069915 -143.07691658 122.13806449 -139.75 118.3125 C-136.09812947 114.11835635 -132.34483816 110.01905708 -128.59765625 105.91015625 C-126.01511116 103.05972966 -123.48094897 100.17174108 -120.95703125 97.26953125 C-116.64880252 92.35263444 -112.24063844 87.52360968 -107.859375 82.671875 C-104.46405062 78.9069915 -101.07691658 75.13806449 -97.75 71.3125 C-94.09812947 67.11835635 -90.34483816 63.01905708 -86.59765625 58.91015625 C-84.01511116 56.05972966 -81.48094897 53.17174108 -78.95703125 50.26953125 C-74.64880252 45.35263444 -70.24063844 40.52360968 -65.859375 35.671875 C-62.46405062 31.9069915 -59.07691658 28.13806449 -55.75 24.3125 C-52.10062302 20.12122017 -48.35558408 16.02011552 -44.59375 11.9296875 C-43.1349417 10.30510553 -41.70773101 8.65028876 -40.34375 6.9453125 C-29.88676495 -6.12591881 -14.19984923 -7.79599566 0 0 Z " fill="#000000" transform="translate(496.1875,13.75)"/>
<path d="M0 0 C0.96074432 -0.00006042 1.92148865 -0.00012085 2.91134644 -0.00018311 C70.05606579 0.05928289 70.05606579 0.05928289 80.3125 5.1875 C77.92867535 10.33466367 74.93120987 14.81111638 70.3125 18.1875 C67.50760316 18.35389219 65.39530465 17.7207319 62.69140625 16.96484375 C47.46980141 13.46299478 32.29049972 16.78073923 18.9453125 24.484375 C13.33909535 28.11094871 7.92804764 31.99153209 3.953125 37.39453125 C-0.07959537 41.43042349 -4.90560134 40.87580996 -10.32006836 40.91699219 C-11.01905243 40.90970093 -11.7180365 40.90240967 -12.4382019 40.89489746 C-16.25114545 40.86020386 -20.06258831 40.93528506 -23.875 40.99609375 C-24.67562363 41.00661774 -25.47624725 41.01714172 -26.3011322 41.02798462 C-89.2621015 42.00170679 -172.47037518 50.03753425 -221.59375 92.78125 C-222.63015625 93.47734375 -222.63015625 93.47734375 -223.6875 94.1875 C-226.6875 93.1875 -226.6875 93.1875 -227.8203125 91.48046875 C-228.14773437 90.78566406 -228.47515625 90.09085937 -228.8125 89.375 C-229.14507812 88.68792969 -229.47765625 88.00085938 -229.8203125 87.29296875 C-233.1113621 79.30253752 -232.17575948 71.76154407 -228.98828125 63.875 C-218.61653259 42.44628204 -191.30260309 31.66570108 -170.24414062 24.32421875 C-167.06636735 23.25271151 -163.88100134 22.21112813 -160.6875 21.1875 C-159.70894043 20.87329102 -158.73038086 20.55908203 -157.72216797 20.23535156 C-107.1872811 4.36433128 -52.69442949 -0.05179266 0 0 Z " fill="#000000" transform="translate(234.6875,152.8125)"/>
<path d="M0 0 C5.95632438 1.24810947 11.76974945 2.75719368 17.61083984 4.46191406 C29.98408208 8.06091282 42.26905462 11.0170296 55 13 C55.88993652 13.14953125 56.77987305 13.2990625 57.69677734 13.453125 C107.7772469 21.60514671 163.32353422 17.44043898 211.10009766 0.54736328 C213 0 213 0 216 0 C216.51512563 10.18804016 216.2214889 16.66105816 209.875 24.6875 C202.68469202 30.47100859 194.37893059 33.04843629 185.5 35.0625 C183.89487549 35.43701294 183.89487549 35.43701294 182.25732422 35.8190918 C162.79293284 40.2176085 142.99639861 43.12174577 123.02734375 43.203125 C121.34530602 43.21167511 121.34530602 43.21167511 119.62928772 43.22039795 C117.26190109 43.22979328 114.89450171 43.23636 112.52709961 43.24023438 C108.99893629 43.24983286 105.47138384 43.28086517 101.94335938 43.3125 C74.52692729 43.44076149 47.77317728 39.90642351 21.375 32.4375 C20.70654053 32.25203613 20.03808105 32.06657227 19.34936523 31.87548828 C10.85860661 29.32661413 5.64839161 24.47486859 1.1875 16.9375 C-0.95163044 11.62572666 -0.22780511 5.61075555 0 0 Z " fill="#000000" transform="translate(127,469)"/>
<path d="M0 0 C4.15760935 1.40688228 8.17786293 2.99614071 12.18798828 4.78173828 C13.10902344 5.18658447 14.03005859 5.59143066 14.97900391 6.00854492 C33.3425651 14.18556908 54.00210355 24.02221401 62.12548828 43.71923828 C64.14985252 49.79233099 64.19405426 56.77507748 62.00830078 62.79736328 C60.80459307 65.17757628 59.55013099 67.46524999 58.12548828 69.71923828 C53.32966249 69.71923828 52.91206412 68.97422373 49.50048828 65.84423828 C26.48546561 46.40051223 -6.05892718 37.24676265 -34.87451172 30.71923828 C-34.87451172 27.71923828 -34.87451172 27.71923828 -33.07373047 25.56201172 C-32.24486328 24.74249023 -31.41599609 23.92296875 -30.56201172 23.07861328 C-29.19496094 21.71929687 -29.19496094 21.71929687 -27.80029297 20.33251953 C-27.31898926 19.86152832 -26.83768555 19.39053711 -26.34179688 18.90527344 C-24.90122451 17.49538215 -23.47173216 16.07419819 -22.04248047 14.65283203 C-20.19838839 12.82937315 -18.3417722 11.01848324 -16.47216797 9.22119141 C-14.84945405 7.65826168 -13.2487647 6.0717407 -11.68310547 4.45166016 C-7.95038158 0.77372184 -5.54711106 -1.30734984 0 0 Z " fill="#000000" transform="translate(403.87451171875,176.28076171875)"/>
<path d="M0 0 C3.06243788 0.04948284 4.03476301 0.21322096 6.6875 1.9375 C8.75912043 5.21756568 8.98486278 6.47066114 8.1875 10.3125 C6.10664562 13.52619774 3.65950683 16.39464023 1.1875 19.3125 C-4.65118746 26.54825489 -7.35714027 32.0179578 -7.11328125 41.515625 C-6.2149915 49.86855307 -1.63751494 54.83945776 3.9375 60.78125 C12.14672816 70.01663168 15.9375917 80.88188542 15.5234375 93.2109375 C14.27761029 104.71310967 9.5147343 112.57215623 2.1875 121.3125 C1.65125 121.98796875 1.115 122.6634375 0.5625 123.359375 C-2.45833333 127.13541667 -2.45833333 127.13541667 -4.8125 128.3125 C-8.64864957 128.66769903 -10.95879634 128.85974594 -14.25 126.75 C-16.40995679 123.38046741 -16.20128647 121.26725271 -15.8125 117.3125 C-13.984375 114.43359375 -13.984375 114.43359375 -11.5625 111.75 C-10.33273438 110.34041016 -10.33273438 110.34041016 -9.078125 108.90234375 C-8.33046875 108.04769531 -7.5828125 107.19304687 -6.8125 106.3125 C-1.29758273 98.97410202 -1.14699999 92.32700019 -1.8125 83.3125 C-3.14091238 77.4470484 -7.413469 73.36832465 -11.25 68.9375 C-20.34990417 58.42342153 -24.33579549 48.28862297 -23.65625 34.03515625 C-22.21314235 23.25347695 -12.41075618 1.0172751 0 0 Z " fill="#000000" transform="translate(133.8125,-0.3125)"/>
<path d="M0 0 C2.9375 2.0625 2.9375 2.0625 5 5 C5.41411539 9.22397694 4.77660086 10.96166226 2.23828125 14.35546875 C0.81110303 16.05700286 -0.61731369 17.75749883 -2.046875 19.45703125 C-5.33220262 23.73452781 -6.99433418 27.79314412 -7.00390625 33.2109375 C-6.14660302 39.24381209 -2.9093714 43.04687921 0.96484375 47.58203125 C9.38013068 57.58023204 10.95290821 67.26112178 10 80 C8.337146 88.64684079 2.30784133 96.0852289 -4 102 C-9.08999053 104.2481844 -9.08999053 104.2481844 -12.75 103.25 C-15 102 -15 102 -17 100 C-17.54714301 95.32710291 -17.66066105 92.37410184 -14.84765625 88.515625 C-13.9384896 87.41098096 -13.00953352 86.32235719 -12.0625 85.25 C-8.15182807 80.6561708 -6.2659238 77.76560754 -5.6875 71.75 C-6.2625695 64.84916604 -9.351872 60.54883134 -14 55.5625 C-21.20441492 47.80802733 -23.34567724 39.5333968 -23.20703125 29.16015625 C-22.5973018 19.85315382 -19.01455504 13.92665239 -13 7 C-12.06175592 5.83393164 -11.12415533 4.66734492 -10.1875 3.5 C-6.94896244 -0.20118578 -4.86265982 -0.57207763 0 0 Z " fill="#000000" transform="translate(197,16)"/>
<path d="M0 0 C2.375 1.5 2.375 1.5 4 4 C4.81826472 8.38887441 4.95758003 10.56362996 2.4609375 14.30859375 C1.19788983 15.84971981 -0.07556421 17.38237703 -1.359375 18.90625 C-3.54087515 21.69025971 -4.23121077 23.45476816 -4 27 C-1.75741077 31.84399274 1.30469508 35.85197676 4.6328125 40.0078125 C9.04280514 46.43380178 8.79659425 53.47752235 8 61 C5.93396017 67.56167155 1.95254154 73.25078861 -3 78 C-5.88861709 79.44430855 -7.79647701 79.37688506 -11 79 C-13.9375 76.9375 -13.9375 76.9375 -16 74 C-16.32641095 68.23340655 -13.86432653 64.96861107 -10.375 60.69921875 C-8.60877281 58.51652322 -8.02789138 57.16734825 -7.5625 54.375 C-8.19884738 49.4660345 -10.92937799 46.7479651 -14 43 C-19.4215621 35.47005264 -20.81284464 29.17727817 -20 20 C-18.53596464 12.59996672 -13.6311294 6.09447496 -7.96484375 1.265625 C-5.14004765 -0.55392557 -3.28970126 -0.4797481 0 0 Z " fill="#000000" transform="translate(77,58)"/>
</svg>
